<?xml version="1.0" encoding="utf-8"?>
<!-- Generator: Adobe Illustrator 16.0.0, SVG Export Plug-In . SVG Version: 6.00 Build 0)  -->
<!DOCTYPE svg PUBLIC "-//W3C//DTD SVG 1.1//EN" "http://www.w3.org/Graphics/SVG/1.1/DTD/svg11.dtd">
<svg version="1.1" id="Layer_1" xmlns="http://www.w3.org/2000/svg" xmlns:xlink="http://www.w3.org/1999/xlink" x="0px" y="0px"
	 width="65px" height="14px" viewBox="0 0 65 14" enable-background="new 0 0 65 14" xml:space="preserve">
<g id="logotipo-pointer" transform="translate(2457.5 221.203)">
	<path id="Path_1" fill="#FF8201" d="M-2420.094-218.995h3.722v10.861h1.46v-10.861h3.723v-1.261h-8.903L-2420.094-218.995
		L-2420.094-218.995z"/>
	<path id="Path_2" fill="#FF8201" d="M-2422.781-210.531l-7.523-9.727h-1.463v12.121h1.463v-9.747l7.523,9.747h1.459v-12.121h-1.459
		V-210.531z"/>
	<rect id="Rectangle_1" x="-2435.274" y="-220.255" fill="#FF8201" width="1.463" height="12.122"/>
	<path id="Path_3" fill="#FF8201" d="M-2409.968-208.137h7.601v-1.279h-6.137v-4.39h6.137v-1.26h-6.137v-3.93h6.137v-1.261h-7.601
		V-208.137z"/>
	<path id="Path_4" fill="#FF8201" d="M-2396.136-213.514c1.517-0.477,2.444-1.639,2.444-3.468c0-2.193-1.687-3.32-4.264-3.32
		c-1.291,0-3.187,0.046-3.187,0.046v12.122h1.46v-10.784c0,0,0.521-0.016,0.846-0.016c0.846,0,3.68-0.208,3.68,2.049
		c0,2.234-2.362,2.575-2.861,2.686l3.229,6.062h1.563L-2396.136-213.514z"/>
	<path id="Path_5" fill="#FF8201" d="M-2438.335-218.958c-0.497-0.522-1.095-0.938-1.758-1.222
		c-1.422-0.598-3.022-0.587-4.439,0.027c-0.696,0.303-1.319,0.754-1.826,1.319c-0.548,0.603-0.971,1.302-1.245,2.064
		c-0.287,0.817-0.425,1.679-0.415,2.544c-0.017,0.969,0.164,1.932,0.524,2.828c0.313,0.781,0.781,1.49,1.381,2.08
		c0.499,0.496,1.094,0.887,1.747,1.15c0.658,0.258,1.36,0.387,2.067,0.383c0.72,0.007,1.435-0.129,2.101-0.4
		c0.699-0.303,1.329-0.743,1.854-1.297c0.556-0.581,0.991-1.271,1.272-2.023c0.336-0.859,0.502-1.777,0.495-2.699
		c0.005-0.893-0.146-1.777-0.448-2.619C-2437.306-217.619-2437.754-218.347-2438.335-218.958z M-2438.505-211.813
		c-0.248,0.622-0.617,1.187-1.088,1.662c-0.355,0.358-0.779,0.647-1.243,0.851c-0.466,0.199-0.966,0.297-1.47,0.294
		c-0.51,0.003-1.012-0.1-1.479-0.305c-0.443-0.19-0.848-0.464-1.193-0.802c-0.5-0.494-0.889-1.094-1.135-1.752
		c-0.535-1.479-0.538-3.092-0.011-4.572c0.236-0.669,0.61-1.281,1.102-1.796c0.352-0.366,0.773-0.663,1.24-0.866
		c0.471-0.199,0.974-0.299,1.482-0.294c0.504-0.008,1.006,0.092,1.473,0.292c0.443,0.194,0.845,0.471,1.188,0.814
		c0.538,0.533,0.938,1.188,1.171,1.911c0.253,0.745,0.384,1.526,0.384,2.315C-2438.071-213.293-2438.215-212.528-2438.505-211.813z"
		/>
	<path id="Path_6" fill="#FF8201" d="M-2450.59-219.311c-0.612-0.369-1.289-0.62-1.996-0.73c-0.897-0.148-1.811-0.22-2.726-0.213
		h-1.463v12.119h1.463v-3.163c0.628,0,1.201-0.025,1.714-0.08c0.489-0.046,0.974-0.13,1.447-0.253
		c0.971-0.237,1.834-0.788,2.459-1.563c0.6-0.728,0.928-1.64,0.923-2.58c0.018-0.722-0.144-1.437-0.469-2.085
		C-2449.548-218.456-2450.017-218.958-2450.59-219.311z M-2450.911-214.035c-0.354,0.486-0.841,0.863-1.401,1.084
		c-0.402,0.172-0.83,0.279-1.263,0.322c-0.464,0.057-0.928,0.088-1.393,0.09h-0.346v-6.451h0.346c0.479,0,0.948,0.023,1.404,0.064
		c0.438,0.038,0.865,0.146,1.271,0.317c1.178,0.433,1.934,1.58,1.864,2.833C-2450.403-215.158-2450.573-214.554-2450.911-214.035
		L-2450.911-214.035z"/>
</g>
</svg>
